<mxfile host="drawio-plugin" modified="2021-04-15T19:00:12.624Z" agent="5.0 (Windows NT 6.2; Win64; x64) AppleWebKit/537.36 (KHTML, like Gecko) Chrome/81.0.4044.113 Safari/537.36" version="13.7.9" etag="TN-rToDe7jA8Ec9KZjMm" type="embed"><diagram id="ijr0EQbb79bFuOUZ7lnN" name="Page-1"><mxGraphModel dx="536" dy="512" grid="1" gridSize="1" guides="1" tooltips="1" connect="1" arrows="1" fold="1" page="1" pageScale="1" pageWidth="827" pageHeight="1169" math="0" shadow="0"><root><mxCell id="0"/><mxCell id="1" parent="0"/><mxCell id="43" style="edgeStyle=orthogonalEdgeStyle;rounded=0;orthogonalLoop=1;jettySize=auto;html=1;exitX=0.5;exitY=1;exitDx=0;exitDy=0;entryX=0.5;entryY=0;entryDx=0;entryDy=0;fontFamily=Times New Roman;fontSize=13;" edge="1" parent="1" target="25"><mxGeometry relative="1" as="geometry"><mxPoint x="436.5000000000002" y="178.08999999999992" as="sourcePoint"/></mxGeometry></mxCell><mxCell id="6" value="" style="shape=loopLimit;whiteSpace=wrap;html=1;fontFamily=Times New Roman;aspect=fixed;" vertex="1" parent="1"><mxGeometry x="374" y="93" width="127" height="85.09" as="geometry"/></mxCell><mxCell id="13" value="" style="group" vertex="1" connectable="0" parent="1"><mxGeometry x="43" y="13" width="127" height="43.18" as="geometry"/></mxCell><mxCell id="4" value="" style="strokeWidth=2;html=1;shape=mxgraph.flowchart.terminator;whiteSpace=wrap;fontFamily=Times New Roman;aspect=fixed;" vertex="1" parent="13"><mxGeometry width="127" height="43.18" as="geometry"/></mxCell><mxCell id="7" value="Начало BubbleSort" style="text;html=1;strokeColor=none;fillColor=none;align=center;verticalAlign=middle;whiteSpace=wrap;rounded=0;fontFamily=Times New Roman;fontSize=13;" vertex="1" parent="13"><mxGeometry x="12" y="7" width="99" height="19" as="geometry"/></mxCell><mxCell id="16" value="" style="group" vertex="1" connectable="0" parent="1"><mxGeometry x="324" y="1091" width="127" height="43.17999999999995" as="geometry"/></mxCell><mxCell id="15" value="" style="group" vertex="1" connectable="0" parent="16"><mxGeometry width="127" height="43.17999999999995" as="geometry"/></mxCell><mxCell id="14" value="" style="group" vertex="1" connectable="0" parent="15"><mxGeometry width="127" height="43.17999999999995" as="geometry"/></mxCell><mxCell id="12" value="" style="group" vertex="1" connectable="0" parent="14"><mxGeometry width="127" height="43.17999999999995" as="geometry"/></mxCell><mxCell id="10" value="" style="strokeWidth=2;html=1;shape=mxgraph.flowchart.terminator;whiteSpace=wrap;fontFamily=Times New Roman;aspect=fixed;" vertex="1" parent="12"><mxGeometry width="127" height="43.18" as="geometry"/></mxCell><mxCell id="11" value="Конец" style="text;html=1;strokeColor=none;fillColor=none;align=center;verticalAlign=middle;whiteSpace=wrap;rounded=0;fontFamily=Times New Roman;fontSize=13;" vertex="1" parent="12"><mxGeometry x="25" y="11.589999999999918" width="77" height="20" as="geometry"/></mxCell><mxCell id="17" value="" style="rounded=0;whiteSpace=wrap;html=1;fontFamily=Times New Roman;fontSize=13;" vertex="1" parent="1"><mxGeometry x="206" y="93" width="127" height="85" as="geometry"/></mxCell><mxCell id="41" style="edgeStyle=orthogonalEdgeStyle;rounded=0;orthogonalLoop=1;jettySize=auto;html=1;entryX=0;entryY=0.5;entryDx=0;entryDy=0;fontFamily=Times New Roman;fontSize=13;exitX=1;exitY=0.5;exitDx=0;exitDy=0;" edge="1" parent="1" source="17" target="6"><mxGeometry relative="1" as="geometry"><mxPoint x="341" y="135" as="sourcePoint"/></mxGeometry></mxCell><mxCell id="18" value="i = 0" style="text;html=1;strokeColor=none;fillColor=none;align=center;verticalAlign=middle;whiteSpace=wrap;rounded=0;fontFamily=Times New Roman;fontSize=13;" vertex="1" parent="1"><mxGeometry x="209" y="98" width="121" height="74" as="geometry"/></mxCell><mxCell id="46" style="edgeStyle=orthogonalEdgeStyle;rounded=0;orthogonalLoop=1;jettySize=auto;html=1;exitX=1;exitY=0.5;exitDx=0;exitDy=0;fontFamily=Times New Roman;fontSize=13;entryX=0.5;entryY=0;entryDx=0;entryDy=0;" edge="1" parent="1" source="19" target="20"><mxGeometry relative="1" as="geometry"><mxPoint x="752" y="383" as="targetPoint"/></mxGeometry></mxCell><mxCell id="50" style="edgeStyle=orthogonalEdgeStyle;rounded=0;orthogonalLoop=1;jettySize=auto;html=1;fontFamily=Times New Roman;fontSize=13;entryX=0.5;entryY=0;entryDx=0;entryDy=0;" edge="1" parent="1" source="19" target="32"><mxGeometry relative="1" as="geometry"><mxPoint x="556" y="791" as="targetPoint"/><Array as="points"><mxPoint x="464" y="383"/><mxPoint x="464" y="791"/><mxPoint x="556" y="791"/></Array></mxGeometry></mxCell><mxCell id="19" value="" style="rhombus;whiteSpace=wrap;html=1;fontFamily=Times New Roman;fontSize=13;" vertex="1" parent="1"><mxGeometry x="546.5" y="346" width="127" height="74" as="geometry"/></mxCell><mxCell id="47" style="edgeStyle=orthogonalEdgeStyle;rounded=0;orthogonalLoop=1;jettySize=auto;html=1;exitX=0.5;exitY=1;exitDx=0;exitDy=0;entryX=0.5;entryY=0;entryDx=0;entryDy=0;fontFamily=Times New Roman;fontSize=13;" edge="1" parent="1" source="20" target="28"><mxGeometry relative="1" as="geometry"/></mxCell><mxCell id="20" value="" style="rounded=0;whiteSpace=wrap;html=1;fontFamily=Times New Roman;fontSize=13;" vertex="1" parent="1"><mxGeometry x="681" y="429" width="127" height="85" as="geometry"/></mxCell><mxCell id="21" value="temp = a[j]" style="text;html=1;strokeColor=none;fillColor=none;align=center;verticalAlign=middle;whiteSpace=wrap;rounded=0;fontFamily=Times New Roman;fontSize=13;" vertex="1" parent="1"><mxGeometry x="684" y="435" width="121" height="74" as="geometry"/></mxCell><mxCell id="25" value="" style="rounded=0;whiteSpace=wrap;html=1;fontFamily=Times New Roman;fontSize=13;" vertex="1" parent="1"><mxGeometry x="373" y="217" width="127" height="85" as="geometry"/></mxCell><mxCell id="44" style="edgeStyle=orthogonalEdgeStyle;rounded=0;orthogonalLoop=1;jettySize=auto;html=1;entryX=0;entryY=0.5;entryDx=0;entryDy=0;fontFamily=Times New Roman;fontSize=13;" edge="1" parent="1" source="25" target="27"><mxGeometry relative="1" as="geometry"><mxPoint x="512" y="258" as="sourcePoint"/></mxGeometry></mxCell><mxCell id="26" value="j = n - 1" style="text;html=1;strokeColor=none;fillColor=none;align=center;verticalAlign=middle;whiteSpace=wrap;rounded=0;fontFamily=Times New Roman;fontSize=13;" vertex="1" parent="1"><mxGeometry x="376" y="222" width="121" height="74" as="geometry"/></mxCell><mxCell id="45" style="edgeStyle=orthogonalEdgeStyle;rounded=0;orthogonalLoop=1;jettySize=auto;html=1;entryX=0.5;entryY=0;entryDx=0;entryDy=0;fontFamily=Times New Roman;fontSize=13;" edge="1" parent="1" source="27" target="19"><mxGeometry relative="1" as="geometry"><mxPoint x="611" y="313" as="sourcePoint"/></mxGeometry></mxCell><mxCell id="27" value="" style="shape=loopLimit;whiteSpace=wrap;html=1;fontFamily=Times New Roman;aspect=fixed;" vertex="1" parent="1"><mxGeometry x="546" y="217" width="127" height="85.09" as="geometry"/></mxCell><mxCell id="28" value="" style="rounded=0;whiteSpace=wrap;html=1;fontFamily=Times New Roman;fontSize=13;" vertex="1" parent="1"><mxGeometry x="681" y="558" width="127" height="85" as="geometry"/></mxCell><mxCell id="48" style="edgeStyle=orthogonalEdgeStyle;rounded=0;orthogonalLoop=1;jettySize=auto;html=1;entryX=0.5;entryY=0;entryDx=0;entryDy=0;fontFamily=Times New Roman;fontSize=13;exitX=0.5;exitY=1;exitDx=0;exitDy=0;" edge="1" parent="1" source="28" target="30"><mxGeometry relative="1" as="geometry"><mxPoint x="744" y="650" as="sourcePoint"/></mxGeometry></mxCell><mxCell id="29" value="a[j] = a[j - 1]" style="text;html=1;strokeColor=none;fillColor=none;align=center;verticalAlign=middle;whiteSpace=wrap;rounded=0;fontFamily=Times New Roman;fontSize=13;" vertex="1" parent="1"><mxGeometry x="684" y="564" width="121" height="74" as="geometry"/></mxCell><mxCell id="49" style="edgeStyle=orthogonalEdgeStyle;rounded=0;orthogonalLoop=1;jettySize=auto;html=1;fontFamily=Times New Roman;fontSize=13;entryX=0.5;entryY=0;entryDx=0;entryDy=0;" edge="1" parent="1" source="30" target="32"><mxGeometry relative="1" as="geometry"><mxPoint x="744.5" y="801" as="targetPoint"/><Array as="points"><mxPoint x="744" y="791"/><mxPoint x="557" y="791"/></Array></mxGeometry></mxCell><mxCell id="30" value="" style="rounded=0;whiteSpace=wrap;html=1;fontFamily=Times New Roman;fontSize=13;" vertex="1" parent="1"><mxGeometry x="681" y="685" width="127" height="85" as="geometry"/></mxCell><mxCell id="31" value="a[j - 1] = temp" style="text;html=1;strokeColor=none;fillColor=none;align=center;verticalAlign=middle;whiteSpace=wrap;rounded=0;fontFamily=Times New Roman;fontSize=13;" vertex="1" parent="1"><mxGeometry x="684" y="691" width="121" height="74" as="geometry"/></mxCell><mxCell id="51" style="edgeStyle=orthogonalEdgeStyle;rounded=0;orthogonalLoop=1;jettySize=auto;html=1;exitX=0;exitY=0.5;exitDx=0;exitDy=0;entryX=0;entryY=0.5;entryDx=0;entryDy=0;fontFamily=Times New Roman;fontSize=13;" edge="1" parent="1" source="32" target="34"><mxGeometry relative="1" as="geometry"/></mxCell><mxCell id="32" value="" style="rounded=0;whiteSpace=wrap;html=1;fontFamily=Times New Roman;fontSize=13;" vertex="1" parent="1"><mxGeometry x="493" y="814" width="127" height="85" as="geometry"/></mxCell><mxCell id="33" value="j = j - 1" style="text;html=1;strokeColor=none;fillColor=none;align=center;verticalAlign=middle;whiteSpace=wrap;rounded=0;fontFamily=Times New Roman;fontSize=13;" vertex="1" parent="1"><mxGeometry x="496" y="820" width="121" height="74" as="geometry"/></mxCell><mxCell id="52" style="edgeStyle=orthogonalEdgeStyle;rounded=0;orthogonalLoop=1;jettySize=auto;html=1;exitX=1;exitY=0.5;exitDx=0;exitDy=0;entryX=1;entryY=0.5;entryDx=0;entryDy=0;fontFamily=Times New Roman;fontSize=13;" edge="1" parent="1" source="34" target="36"><mxGeometry relative="1" as="geometry"/></mxCell><mxCell id="34" value="" style="shape=loopLimit;whiteSpace=wrap;html=1;fontFamily=Times New Roman;aspect=fixed;direction=west;" vertex="1" parent="1"><mxGeometry x="325" y="814" width="127" height="85.09" as="geometry"/></mxCell><mxCell id="35" value="" style="rounded=0;whiteSpace=wrap;html=1;fontFamily=Times New Roman;fontSize=13;" vertex="1" parent="1"><mxGeometry x="158" y="814" width="127" height="85" as="geometry"/></mxCell><mxCell id="53" style="edgeStyle=orthogonalEdgeStyle;rounded=0;orthogonalLoop=1;jettySize=auto;html=1;fontFamily=Times New Roman;fontSize=13;exitX=0.5;exitY=1;exitDx=0;exitDy=0;" edge="1" parent="1" source="35" target="37"><mxGeometry relative="1" as="geometry"><mxPoint x="126" y="989" as="sourcePoint"/></mxGeometry></mxCell><mxCell id="36" value="i = i + 1" style="text;html=1;strokeColor=none;fillColor=none;align=center;verticalAlign=middle;whiteSpace=wrap;rounded=0;fontFamily=Times New Roman;fontSize=13;" vertex="1" parent="1"><mxGeometry x="161" y="820" width="121" height="74" as="geometry"/></mxCell><mxCell id="54" style="edgeStyle=orthogonalEdgeStyle;rounded=0;orthogonalLoop=1;jettySize=auto;html=1;exitX=0;exitY=0.5;exitDx=0;exitDy=0;entryX=0;entryY=0.5;entryDx=0;entryDy=0;fontFamily=Times New Roman;fontSize=13;" edge="1" parent="1" source="37" target="65"><mxGeometry relative="1" as="geometry"><mxPoint x="327" y="988.5" as="targetPoint"/></mxGeometry></mxCell><mxCell id="37" value="" style="shape=loopLimit;whiteSpace=wrap;html=1;fontFamily=Times New Roman;aspect=fixed;direction=west;" vertex="1" parent="1"><mxGeometry x="158" y="946" width="127" height="85.09" as="geometry"/></mxCell><mxCell id="55" style="edgeStyle=orthogonalEdgeStyle;rounded=0;orthogonalLoop=1;jettySize=auto;html=1;entryX=0.5;entryY=0;entryDx=0;entryDy=0;entryPerimeter=0;fontFamily=Times New Roman;fontSize=13;exitX=0.5;exitY=1;exitDx=0;exitDy=0;" edge="1" parent="1" target="10"><mxGeometry relative="1" as="geometry"><mxPoint x="387.5" y="1031" as="sourcePoint"/></mxGeometry></mxCell><mxCell id="39" value="{a[i]}" style="text;html=1;strokeColor=none;fillColor=none;align=center;verticalAlign=middle;whiteSpace=wrap;rounded=0;fontFamily=Times New Roman;fontSize=13;" vertex="1" parent="1"><mxGeometry x="330" y="952" width="121" height="74" as="geometry"/></mxCell><mxCell id="40" style="edgeStyle=orthogonalEdgeStyle;rounded=0;orthogonalLoop=1;jettySize=auto;html=1;exitX=0.5;exitY=1;exitDx=0;exitDy=0;exitPerimeter=0;fontFamily=Times New Roman;fontSize=13;" edge="1" parent="1" source="4" target="61"><mxGeometry relative="1" as="geometry"/></mxCell><mxCell id="56" value="Цикл i&lt;br&gt;&lt;br&gt;i &amp;lt; n-1" style="text;html=1;strokeColor=none;fillColor=none;align=center;verticalAlign=middle;whiteSpace=wrap;rounded=0;fontFamily=Times New Roman;fontSize=13;" vertex="1" parent="1"><mxGeometry x="388" y="128" width="99" height="19" as="geometry"/></mxCell><mxCell id="57" value="Цикл j&lt;br&gt;&lt;br&gt;j &amp;gt; i" style="text;html=1;strokeColor=none;fillColor=none;align=center;verticalAlign=middle;whiteSpace=wrap;rounded=0;fontFamily=Times New Roman;fontSize=13;" vertex="1" parent="1"><mxGeometry x="560" y="250" width="99" height="19" as="geometry"/></mxCell><mxCell id="58" value="a[j] &amp;lt; a[j - 1]" style="text;html=1;strokeColor=none;fillColor=none;align=center;verticalAlign=middle;whiteSpace=wrap;rounded=0;fontFamily=Times New Roman;fontSize=13;" vertex="1" parent="1"><mxGeometry x="561" y="374" width="99" height="19" as="geometry"/></mxCell><mxCell id="59" value="Конец цикла j" style="text;html=1;strokeColor=none;fillColor=none;align=center;verticalAlign=middle;whiteSpace=wrap;rounded=0;fontFamily=Times New Roman;fontSize=13;" vertex="1" parent="1"><mxGeometry x="340" y="849" width="99" height="19" as="geometry"/></mxCell><mxCell id="60" value="Конец цикла i" style="text;html=1;strokeColor=none;fillColor=none;align=center;verticalAlign=middle;whiteSpace=wrap;rounded=0;fontFamily=Times New Roman;fontSize=13;" vertex="1" parent="1"><mxGeometry x="172" y="979" width="99" height="19" as="geometry"/></mxCell><mxCell id="64" style="edgeStyle=orthogonalEdgeStyle;rounded=0;orthogonalLoop=1;jettySize=auto;html=1;exitX=1;exitY=0.5;exitDx=0;exitDy=0;entryX=0;entryY=0.5;entryDx=0;entryDy=0;fontFamily=Times New Roman;fontSize=13;" edge="1" parent="1" source="61" target="17"><mxGeometry relative="1" as="geometry"/></mxCell><mxCell id="61" value="" style="shape=parallelogram;perimeter=parallelogramPerimeter;whiteSpace=wrap;html=1;fixedSize=1;fontFamily=Times New Roman;fontSize=13;" vertex="1" parent="1"><mxGeometry x="43" y="93" width="127" height="85" as="geometry"/></mxCell><mxCell id="65" value="" style="shape=parallelogram;perimeter=parallelogramPerimeter;whiteSpace=wrap;html=1;fixedSize=1;fontFamily=Times New Roman;fontSize=13;" vertex="1" parent="1"><mxGeometry x="324" y="946" width="127" height="85" as="geometry"/></mxCell><mxCell id="66" value="Ввод&lt;br&gt;a[ ], n" style="text;html=1;strokeColor=none;fillColor=none;align=center;verticalAlign=middle;whiteSpace=wrap;rounded=0;fontFamily=Times New Roman;fontSize=13;" vertex="1" parent="1"><mxGeometry x="46" y="98" width="121" height="74" as="geometry"/></mxCell><mxCell id="67" value="Вывод&lt;br&gt;a[ ]" style="text;html=1;strokeColor=none;fillColor=none;align=center;verticalAlign=middle;whiteSpace=wrap;rounded=0;fontFamily=Times New Roman;fontSize=13;" vertex="1" parent="1"><mxGeometry x="328" y="952" width="121" height="74" as="geometry"/></mxCell><mxCell id="68" value="+" style="text;html=1;strokeColor=none;fillColor=none;align=center;verticalAlign=middle;whiteSpace=wrap;rounded=0;fontFamily=Times New Roman;fontSize=13;" vertex="1" parent="1"><mxGeometry x="439" y="176" width="27" height="24" as="geometry"/></mxCell><mxCell id="69" value="+" style="text;html=1;strokeColor=none;fillColor=none;align=center;verticalAlign=middle;whiteSpace=wrap;rounded=0;fontFamily=Times New Roman;fontSize=13;" vertex="1" parent="1"><mxGeometry x="609" y="302" width="27" height="24" as="geometry"/></mxCell><mxCell id="70" value="+" style="text;html=1;strokeColor=none;fillColor=none;align=center;verticalAlign=middle;whiteSpace=wrap;rounded=0;fontFamily=Times New Roman;fontSize=13;" vertex="1" parent="1"><mxGeometry x="667" y="360" width="27" height="24" as="geometry"/></mxCell></root></mxGraphModel></diagram></mxfile>